<svg width="800" height="700" viewBox="0 0 800 700" fill="none" xmlns="http://www.w3.org/2000/svg">
  <rect width="800" height="700" rx="36" fill="#171717"/>
  <circle cx="640" cy="160" r="160" fill="#FF7A1A" fill-opacity="0.2"/>
  <circle cx="190" cy="530" r="140" fill="#FFFFFF" fill-opacity="0.05"/>
  <rect x="84" y="460" width="632" height="132" rx="24" fill="#232323"/>
  <path d="M144 424C184 364 248 322 344 322C420 322 492 348 538 392C578 430 610 444 664 448" stroke="#FF7A1A" stroke-width="12" stroke-linecap="round"/>
  <path d="M126 452L332 452" stroke="#F8F8F8" stroke-width="12" stroke-linecap="round"/>
  <path d="M142 420L242 420" stroke="#F8F8F8" stroke-width="12" stroke-linecap="round"/>
  <path d="M486 366L618 246" stroke="#F8F8F8" stroke-width="10" stroke-linecap="round"/>
  <path d="M586 252L648 242L630 300L586 252Z" fill="#FF7A1A"/>
  <path d="M470 380L654 238" stroke="#FF9F43" stroke-width="8" stroke-linecap="round"/>
  <path d="M468 380L530 380" stroke="#F8F8F8" stroke-width="10" stroke-linecap="round"/>
  <path d="M368 246C394 220 428 206 462 206C496 206 534 220 560 246" stroke="#F8F8F8" stroke-width="10" stroke-linecap="round"/>
  <rect x="154" y="300" width="164" height="96" rx="20" fill="#FF7A1A"/>
  <rect x="176" y="320" width="120" height="16" rx="8" fill="#FFE5D2"/>
  <rect x="176" y="352" width="90" height="12" rx="6" fill="#FFE5D2" fill-opacity="0.8"/>
  <path d="M320 320H372" stroke="#F8F8F8" stroke-width="10" stroke-linecap="round"/>
  <path d="M179 176L238 138" stroke="#FF9F43" stroke-width="8" stroke-linecap="round"/>
  <circle cx="192" cy="170" r="18" fill="#FF9F43"/>
  <circle cx="238" cy="140" r="14" fill="#F8F8F8"/>
</svg>
